<svg xmlns="http://www.w3.org/2000/svg" viewBox="0 0 302 518"><title>note-eight-point-up</title><ellipse cx="101.97" cy="85.81" rx="102" ry="83.16" transform="translate(-23.89 42) rotate(-20.89)"/><rect x="2.57" y="95.89" width="40.58" height="423" transform="translate(45.72 614.78) rotate(180)"/><path d="M31.29,518.89a208.75,208.75,0,0,1,15.06-16.52c31.84-31.35,50.41-28.76,71.94-50.54,3.82-3.87,26.86-27.88,31.79-67.07,4.84-38.49-10.68-68.53-15.9-77.76-2.73,13.16-9.41,37.31-26.77,60.26-25.83,34.16-65,43.93-76.12,46.42C29.06,449,31.29,518.89,31.29,518.89Z"/><ellipse cx="268.18" cy="36.42" rx="34.63" ry="28.23" transform="translate(4.64 98.01) rotate(-20.89)"/></svg>