<svg xmlns="http://www.w3.org/2000/svg" viewBox="0 0 600 518"><title>rest-half-point</title><path d="M469.23,519c-12.28-9.42-24.8-18.54-36.77-28.35-12.68-10.38-24-22.14-33.06-35.95a68.36,68.36,0,0,1-11.07-47.2,121.62,121.62,0,0,1,4.14-20.94C397,372,407.24,363,422.13,359.82a233.66,233.66,0,0,1,24.79-3.37c12.36-1.25,24.82-1.74,36.66-6.1.6-.22,1.18-.48,1.85-.76-4.83-5.26-9.69-10.35-14.33-15.62-22.28-25.31-42.18-52.28-57.2-82.61a97.79,97.79,0,0,1-8.83-24.52c-1-5.16-.54-10.07,2.1-14.54q9.91-16.76,20.16-33.31c11.7-18.82,23.56-37.54,35.33-56.33,6-9.66,8.29-20,8.38-31.59.15-20.45-5-39.43-12.13-58.18q-5.82-15.33-11.62-30.68a6.31,6.31,0,0,1-.5-2.8c3.9,4.63,7.71,9.33,11.71,13.87,15.86,18,32,35.67,47.62,53.82,13.37,15.55,26.19,31.57,39.22,47.41,1,1.28,1.78,2.83,2.8,4.15,6.35,8.2,6.54,17.06,2,25.86-4.79,9.19-9.91,18.25-15.57,26.93-10.68,16.4-22.39,32.12-31.38,49.59-7.4,14.36-12.78,29.33-15.22,45.4-1.9,12.54.57,24.09,5.68,35.41,8.45,18.75,19,36.34,30.09,53.56a759.17,759.17,0,0,0,45,63,11.93,11.93,0,0,1,.57,1.18c-1.49-.71-2.48-1.16-3.44-1.65-11.95-6.08-24.23-11.28-37.61-13.27-15.38-2.3-30.62-2.12-45.07,4.47-19.64,8.95-30.34,25-35.61,45.4-3.52,13.6-1.28,26.06,6.35,37.74,4.86,7.46,9.59,15,14.37,22.53.68,1.07,1.25,2.21,1.88,3.32Z"/><rect x="-4" y="180" width="212" height="67"/></svg>
