<svg xmlns="http://www.w3.org/2000/svg" viewBox="0 0 600 518"><title>rest-eight-point</title><path d="M572.83,94.65a12.39,12.39,0,0,0-8.09-6.24c-5-1.28-9.31-.35-12.45,4-2.44,3.42-4.75,6.92-7.18,10.36q-4.26,6-8.88,11.8-3.9,4.5-8.07,8.78a48.26,48.26,0,0,1-8.66,7.27c-4.71,3-9.36,2.65-14-.19a12.31,12.31,0,0,1-5.15-6.66c-1.08-3.08-2-6.21-2.88-9.36-1.46-5.38-2.6-10.86-4.26-16.19-3.89-12.52-12.4-20.32-25.05-23.58a39,39,0,0,0-18.39,0,43.31,43.31,0,0,0-28,19.25,37.33,37.33,0,0,0-4.9,10.27c-1.38,4.88-1.05,9.89-1,14.87a33.47,33.47,0,0,0,1.36,10.63,48.92,48.92,0,0,0,14.43,21.59,54,54,0,0,0,30.24,12.95,93.28,93.28,0,0,0,23.36-1A209.39,209.39,0,0,0,516,156.19c1.45-.45,2.89-.92,4.34-1.39l1.5,18.06q-2.45,6.78-4.87,13.56l-.17.24a190.7,190.7,0,0,1-19.41,23.23,47.92,47.92,0,0,1-8.66,7.27c-4.71,3-9.36,2.65-14-.19a12.4,12.4,0,0,1-5.15-6.66c-1.08-3.08-2-6.21-2.88-9.36-1.46-5.38-2.6-10.86-4.26-16.19-3.89-12.52-12.4-20.32-25.05-23.58a39,39,0,0,0-18.39,0,43.31,43.31,0,0,0-28,19.25,37.33,37.33,0,0,0-4.9,10.27c-1.37,4.88-1.05,9.89-1,14.87a33.18,33.18,0,0,0,1.35,10.63,48.92,48.92,0,0,0,14.43,21.59,54.07,54.07,0,0,0,30.25,12.95,93.22,93.22,0,0,0,23.35-1,207.85,207.85,0,0,0,30.76-7.12c4.36-1.33,8.69-2.78,13.05-4.2q-36.45,101.49-72.91,203l1.91,1.15,1.76,1.1c9.34,5.81,19.23,7.86,29.94,4.49,3.94-1.24,7.78-2.78,10.92-5.56a9,9,0,0,0,2.7-3.68c2-6.58,3.73-13.25,5.67-19.85q13-44.06,26-88.07c10.29-34.83,20.66-69.65,30.88-104.5,8.6-29.33,17-58.7,25.55-88.06q6.11-21.07,12.19-42.17A2.47,2.47,0,0,0,572.83,94.65Z"/><path d="M185.83,195.86c-6.63,2.14-13.19,4.37-19.81,6.39a283.46,283.46,0,0,1-42,9.72c-10.57,1.55-21.2,2.45-31.87,1.33a73.66,73.66,0,0,1-41.27-17.67,66.83,66.83,0,0,1-19.69-29.46c-1.61-4.68-1.8-9.61-1.85-14.51-.07-6.8-.51-13.63,1.37-20.28a51,51,0,0,1,6.69-14c9.13-14,21.91-22.66,38.26-26.27,8.41-1.85,16.75-2.22,25.09-.07C118,95.47,129.66,106.11,135,123.2c2.26,7.26,3.82,14.74,5.81,22.09,1.17,4.3,2.46,8.57,3.93,12.77a16.82,16.82,0,0,0,7,9.08c6.3,3.88,12.65,4.32,19.08.27a65.33,65.33,0,0,0,11.82-9.93,260.19,260.19,0,0,0,26.47-31.68c2.43-3.44,4.74-6.94,7.18-10.36,3.14-4.38,7.47-5.31,12.45-4a12.39,12.39,0,0,1,8.09,6.24,2.47,2.47,0,0,1,0,1.68q-6.06,21.09-12.19,42.17c-8.51,29.36-17,58.73-25.55,88.06-10.22,34.85-20.59,69.67-30.88,104.5q-13,44-26,88.07c-1.94,6.6-3.65,13.27-5.67,19.85a9,9,0,0,1-2.7,3.68c-3.14,2.78-7,4.32-10.92,5.56-10.71,3.37-20.6,1.32-29.94-4.49l-1.76-1.1-1.91-1.15Z"/></svg>