<svg xmlns="http://www.w3.org/2000/svg" viewBox="0 0 302 518"><title>note-sixteen-up</title><ellipse cx="99.97" cy="85.81" rx="102" ry="83.16" transform="translate(-24.02 41.28) rotate(-20.89)"/><rect x="0.57" y="95.89" width="40.58" height="423" transform="translate(41.72 614.78) rotate(180)"/><path d="M29.37,520.89a199,199,0,0,1,16.31-13.24c34.47-25.11,54.58-23,77.9-40.49,4.14-3.1,29.08-22.33,34.42-53.73,5.24-30.83-11.56-54.9-17.21-62.3a108.35,108.35,0,0,1-29,48.28c-28,27.37-70.4,35.19-82.43,37.19C27,464.89,29.37,520.89,29.37,520.89Z"/><path d="M29.37,412.34A196.86,196.86,0,0,1,45.68,399.1c34.47-25.11,54.58-23,77.9-40.49,4.14-3.1,29.08-22.34,34.42-53.73,5.24-30.84-11.56-54.91-17.21-62.3a108.4,108.4,0,0,1-29,48.28c-28,27.36-70.4,35.19-82.43,37.18C27,356.34,29.37,412.34,29.37,412.34Z"/></svg>