<svg xmlns="http://www.w3.org/2000/svg" viewBox="0 0 302 518"><title>rest-eight</title><path d="M163.83,195.86c-6.63,2.14-13.19,4.37-19.81,6.39a283.46,283.46,0,0,1-42,9.72c-10.57,1.55-21.2,2.45-31.87,1.33a73.66,73.66,0,0,1-41.27-17.67A66.83,66.83,0,0,1,9.22,166.17c-1.61-4.68-1.8-9.61-1.85-14.51-.07-6.8-.51-13.63,1.37-20.28a51,51,0,0,1,6.69-14c9.13-14,21.91-22.66,38.26-26.27,8.41-1.85,16.75-2.22,25.09-.07C96,95.47,107.66,106.11,113,123.2c2.26,7.26,3.82,14.74,5.81,22.09,1.17,4.3,2.46,8.57,3.93,12.77a16.82,16.82,0,0,0,7,9.08c6.3,3.88,12.65,4.32,19.08.27a65.33,65.33,0,0,0,11.82-9.93,260.19,260.19,0,0,0,26.47-31.68c2.43-3.44,4.74-6.94,7.18-10.36,3.14-4.38,7.47-5.31,12.45-4a12.39,12.39,0,0,1,8.09,6.24,2.47,2.47,0,0,1,0,1.68q-6.06,21.09-12.19,42.17c-8.51,29.36-17,58.73-25.55,88.06-10.22,34.85-20.59,69.67-30.88,104.5q-13,44-26,88.07c-1.94,6.6-3.65,13.27-5.67,19.85a9,9,0,0,1-2.7,3.68c-3.14,2.78-7,4.32-10.92,5.56-10.71,3.37-20.6,1.32-29.94-4.49l-1.76-1.1-1.91-1.15Z"/></svg>