<svg xmlns="http://www.w3.org/2000/svg" viewBox="0 0 116 309"><title>sharp</title><rect x="24" y="16" width="20" height="293" rx="2.08"/><rect x="75" width="20" height="293" rx="2.2"/><path d="M.09,134.66.3,108.25a7.19,7.19,0,0,1,4.18-6.49l101.59-47.1a7.21,7.21,0,0,1,10.25,6.56l0,26.72a7.22,7.22,0,0,1-4.21,6.54L10.33,141.27A7.22,7.22,0,0,1,.09,134.66Z"/><path d="M.1,244.34l.19-26a7.45,7.45,0,0,1,4.3-6.68l101.19-46.91a7.42,7.42,0,0,1,10.54,6.75l0,26.27a7.45,7.45,0,0,1-4.32,6.73L10.61,251.14A7.41,7.41,0,0,1,.1,244.34Z"/></svg>
