<svg xmlns="http://www.w3.org/2000/svg" viewBox="0 0 91.76 238.97"><title>time-signature</title><path d="M91.76,103v12.87H36V103.05C47.32,99.44,50.92,93.49,49.74,80H0c1.76-4.13,2.41-7.41,4.27-9.74C16.9,54.32,27.63,37.5,31,17c.9-5.45,1.3-11,2-17H73.92C56.55,25.23,38.08,48.4,16.07,69.9H50c0-5.25-.45-10.77.17-16.17a16.49,16.49,0,0,1,3.9-9c7-7.34,14.56-14.15,21.9-21.17l1.64.54V71.92H91.5v7.66H79.34C76,95.58,79.66,100,91.76,103Z"/><path d="M91.76,226.1V239H36V226.18c11.31-3.6,14.91-9.55,13.73-23.09H0c1.76-4.12,2.41-7.4,4.27-9.73C16.9,177.45,27.63,160.64,31,140.14c.9-5.45,1.3-11,2-17H73.92C56.55,148.37,38.08,171.53,16.07,193H50c0-5.25-.45-10.77.17-16.17a16.49,16.49,0,0,1,3.9-9c7-7.34,14.56-14.15,21.9-21.17l1.64.54v47.79H91.5v7.66H79.34C76,218.72,79.66,223.17,91.76,226.1Z"/></svg>