<svg xmlns="http://www.w3.org/2000/svg" viewBox="0 0 127.15 329.13"><title>treble-staff</title><path d="M58.37,329.13c-2.83-.47-5.7-.81-8.49-1.45-15.17-3.46-25.4-20.17-21.52-35.06,2.33-8.94,9.3-14.4,19-14.89a21,21,0,1,1-.56,41.87c-.61,0-1.24,0-2.47,0a15.8,15.8,0,0,0,2.83,1.81c9.33,3.16,18.81,5.08,28.67,2.88,10.84-2.42,17.31-9.69,20.28-19.86,4.86-16.68,2.57-33-3.57-49-.07-.18-.28-.31-.43-.46-27.79,13.14-65.18-3.41-81-23C1.68,220.36-.94,207.05.28,192.76c1.57-18.28,9.66-34,20.23-48.56,10.45-14.43,23.32-26.51,36.76-38a5.62,5.62,0,0,0,2.1-6.06c-1.62-8.73-3.26-17.48-4.25-26.29-2.51-22.4,4-42.52,16.4-61C73.85,9.41,76.3,6,78.93,2.77,82-1,85.68-.92,88.54,3,106.6,27.7,113,54.72,104.17,84.56,100.08,98.45,92.08,110,81.9,120.09c-3.57,3.54-7.44,6.77-11,10.29a4.2,4.2,0,0,0-1.28,3.17c2.43,11.62,5,23.2,7.59,34.79a1.67,1.67,0,0,0,.31.68c6.17.44,12.09.39,17.84,1.37,18.16,3.11,28.93,14.64,31.28,32.86a10.76,10.76,0,0,0,.55,1.81v9.64a10.29,10.29,0,0,0-.51,1.84c-.57,7.52-3.76,13.89-8.4,19.71-5.16,6.48-11.71,11.22-18.79,15.26-2.28,1.3-2.7,2.56-2.08,5.09,3.08,12.56,6.27,25.14,5.3,38.25-1.06,14.45-7.8,25.15-21.48,30.72C77,327.27,72.42,328,68,329.13ZM76.94,187.85c-9.51.76-16.87,4.68-21.45,12.7-6.31,11-4.52,21.53,3.94,31.5a9,9,0,0,1-2.19-.17c-9-4-16.07-11.1-16.78-22.06-1-15,6-26.21,18.12-34.28,4.18-2.79,9.18-4.36,14.18-6.66-2.39-10.82-4.89-22.11-7.63-34.53C53.74,144.68,42.67,154,32.47,164.16c-9.35,9.33-15.49,20.71-16.88,34.18-1.51,14.56,1.56,27.85,11.08,39.3C42,256,68.76,259.64,88.9,250.93c1.86-.8,1.59-1.82,1.27-3.28q-4.59-20.51-9.09-41C79.7,200.37,78.33,194.13,76.94,187.85ZM62.47,102c2.35-1.38,4.16-2,5.39-3.24q8.39-8.37,16.5-17A60.35,60.35,0,0,0,97.14,61.5c3.72-9.93,5.3-20.08,1.74-30.41C97,25.78,93.82,21.51,87.79,20.74c-5.63-.73-8.92,3.05-11.54,7.2a83.93,83.93,0,0,0-6.13,11.6c-6,13.86-7.9,28.58-8.32,43.51C61.64,89.09,62.21,95.16,62.47,102Zm19,86.05c4.41,20,8.77,39.73,13.15,59.59,13.35-6.5,21.22-24.14,17.53-38.6C108.79,195.68,96.63,187.23,81.52,188Z"/></svg>