<svg xmlns="http://www.w3.org/2000/svg" viewBox="0 0 800 800"><title>logo</title><path d="M15.27,641.74H20l.73,13.75h.36c8-9,18.1-15.93,27.51-15.93,14.12,0,21,7.24,23.89,18.1,10.14-11.22,19.91-18.1,29.69-18.1,17,0,25.7,10.5,25.7,33v55.74h-5.43v-55c0-19.19-6.52-28.6-20.63-28.6-8.69,0-17.38,5.79-27.52,17.38v66.24H68.84v-55c0-19.19-6.51-28.6-20.63-28.6-8.33,0-17.38,5.79-27.51,17.38v66.24H15.27Z" fill="#333"/><path d="M153.55,685.18c0-28.24,18.1-45.62,37.29-45.62,19.91,0,32.58,14.12,32.58,39.82a33.44,33.44,0,0,1-.36,5.8H159.34c0,23.16,13.4,40.18,34,40.18a39.37,39.37,0,0,0,23.89-8l2.54,4.71c-6.52,4-13.76,8.33-26.79,8.33C171.29,730.43,153.55,713.41,153.55,685.18ZM218,680.11c0-23.89-10.86-35.48-27.15-35.48-15.57,0-29.69,13.4-31.5,35.48Z" fill="#333"/><path d="M247.67,641.74h4.71l.72,13.75h.36c8-9,18.1-15.93,27.52-15.93,14.11,0,21,7.24,23.89,18.1,10.13-11.22,19.91-18.1,29.68-18.1,17,0,25.7,10.5,25.7,33v55.74h-5.43v-55c0-19.19-6.51-28.6-20.63-28.6-8.69,0-17.38,5.79-27.51,17.38v66.24h-5.43v-55c0-19.19-6.52-28.6-20.64-28.6-8.32,0-17.37,5.79-27.51,17.38v66.24h-5.43Z" fill="#333"/><path d="M386,685.18c0-29,17.73-45.62,38.37-45.62s38.37,16.66,38.37,45.62c0,28.59-17.74,45.25-38.37,45.25S386,713.77,386,685.18Zm71,0c0-23.9-14.12-40.55-32.58-40.55s-32.58,16.65-32.58,40.55,14.12,40.18,32.58,40.18S456.91,709.07,456.91,685.18Z" fill="#333"/><path d="M489.85,705.45V646.8H476.09v-4.34l13.76-.72.72-25.34h4.71v25.34H521v5.06h-25.7v59.37c0,11.22,2.53,19.19,15.2,19.19,3.26,0,8-1.45,11.23-2.9l1.81,4.71c-5.07,1.81-10.5,3.26-13.4,3.26C494.19,730.43,489.85,720.29,489.85,705.45Z" fill="#9e2500"/><path d="M533.29,685.18c0-29,17.74-45.62,38.37-45.62S610,656.22,610,685.18c0,28.59-17.74,45.25-38.37,45.25S533.29,713.77,533.29,685.18Zm71,0c0-23.9-14.12-40.55-32.58-40.55s-32.58,16.65-32.58,40.55,14.12,40.18,32.58,40.18S604.24,709.07,604.24,685.18Z" fill="#9e2500"/><path d="M637.18,641.74h4.71l.72,13.75H643c9-9,18.1-15.93,30-15.93,17.74,0,26.06,10.5,26.06,33v55.74h-5.43v-55c0-19.19-6.15-28.6-21-28.6-10.86,0-18.83,5.79-30,17.38v66.24h-5.43Z" fill="#9e2500"/><path d="M724.78,685.18c0-28.24,18.1-45.62,37.29-45.62,19.91,0,32.58,14.12,32.58,39.82a33.44,33.44,0,0,1-.36,5.8H730.58c0,23.16,13.39,40.18,34,40.18a39.42,39.42,0,0,0,23.9-8L791,722.1c-6.52,4-13.76,8.33-26.79,8.33C742.52,730.43,724.78,713.41,724.78,685.18Zm64.44-5.07c0-23.89-10.86-35.48-27.15-35.48-15.57,0-29.68,13.4-31.49,35.48Z" fill="#9e2500"/><polygon points="160.09 41.02 65.31 576.72 293.98 377.65 160.09 41.02" fill="#9e2500"/><polygon points="337.32 594.69 477.54 251.49 293.98 377.65 337.32 594.69" fill="#9e2500"/><polygon points="546.36 41.02 602 165.92 503.11 270.51 546.36 41.02" fill="#9e2500"/><polygon points="783.75 41.02 752.5 594.69 602 165.92 783.75 41.02" fill="#9e2500"/><polygon points="160.09 41.02 8.44 573.91 293.98 377.65 160.09 41.02" fill="#333"/><polygon points="372.38 574.02 477.54 251.49 294.26 377.77 372.38 574.02" fill="#333"/><polygon points="546.36 41.02 602 165.92 477.54 251.49 546.36 41.02" fill="#333"/><polygon points="783.75 41.02 783.27 573.89 602 165.92 783.75 41.02" fill="#333"/></svg>