<svg xmlns="http://www.w3.org/2000/svg" viewBox="0 0 24 24">
  <path d="M4 20h16v1a1 1 0 0 1-1 1H5a1 1 0 0 1-1-1v-1zM17 4H7V3a1 1 0 0 1 1-1h8a1 1 0 0 1 1 1z"/>
  <path d="M21.5 6l-1-.5a.4.4 0 0 1-.1-.5l1.4-2.5-1-.5-1.3 2.4a.4.4 0 0 1-.5.2L18 4a.4.4 0 0 0-.5.3v1.8l.8.5L10 21.5l.9.5 8.3-14.8.9.5 1.4-1a.4.4 0 0 0 0-.6zM11 4h2v10h-2zM4 20L7 6h2L6 20H4z"/>
  <path d="M17.2 7.1L17 6h-2l.8 3.7 1.4-2.6zM16.5 12.9L18 20h2l-2.1-9.6-1.4 2.5zM13 7h1v1h-1zM13 9h1v1h-1zM13 11h1v1h-1zM10 7h1v1h-1zM10 9h1v1h-1zM10 11h1v1h-1zM10 19h4v1h-4zM7 4h2v2H7zM15 4h2v2h-2z"/>
</svg>
