<svg xmlns="http://www.w3.org/2000/svg" viewBox="0 0 364 364"><title>logo</title><path d="M145.18,182.15c0,19.4.09,38.8,0,58.2-.08,13.51-5.14,21-14,21.22-9.17.28-14.79-7.63-14.82-21.5q-.14-57.62,0-115.24c0-14,5.45-21.84,14.56-21.77s14.25,7.79,14.31,22C145.25,144.13,145.19,163.14,145.18,182.15Z" fill="#333"/><path d="M247.92,182.15c0,19.4.09,38.8,0,58.2-.08,13.51-5.14,21-14,21.22-9.17.28-14.79-7.63-14.82-21.5q-.14-57.62,0-115.24c0-14,5.45-21.84,14.56-21.77s14.25,7.79,14.31,22C248,144.13,247.92,163.14,247.92,182.15Z" fill="#333"/><path d="M42.45,182.15c0,19.4.08,38.8,0,58.2-.08,13.51-5.15,21-14,21.22-9.17.28-14.79-7.63-14.82-21.5q-.12-57.62,0-115.24c0-14,5.45-21.84,14.57-21.77s14.24,7.79,14.31,22C42.51,144.13,42.45,163.14,42.45,182.15Z" fill="#333"/><path d="M196.62,178.28c0,4.65.3,9.34-.06,14-.72,9.24-5,15.34-13.13,16.06-8.7.77-14.45-4.89-15.29-14.5a185.29,185.29,0,0,1,.14-33.64c.88-9.07,6.58-14.41,14.79-13.8s12.76,6.2,13.44,15.63c.38,5.4.07,10.86.07,16.29Z" fill="#333"/><path d="M93.89,178c0,4.66.29,9.34-.07,14-.72,9.25-5,15.34-13.13,16.06-8.69.77-14.45-4.89-15.29-14.5a184.39,184.39,0,0,1,.15-33.64c.88-9.07,6.57-14.41,14.78-13.8s12.77,6.2,13.44,15.63c.38,5.4.07,10.86.07,16.29Z" fill="#333"/><path d="M279.43,182.74c0-21.79-.05-43.59,0-65.38,0-8.65,5-13.25,14.11-13.36s14.73,4.33,14.77,13q.3,65.76,0,131.52c0,8.68-5.69,13.11-14.83,13s-14-4.71-14.05-13.4C279.38,226.34,279.43,204.54,279.43,182.74Z" fill="#eb5856"/><path d="M350.89,147a73.22,73.22,0,0,1-.07,8.89c-.72,5.88-5,9.76-13.13,10.22-8.69.49-14.45-3.11-15.29-9.23a74.92,74.92,0,0,1,.15-21.41c.88-5.78,6.57-9.18,14.78-8.79s12.77,3.95,13.44,9.95a94.37,94.37,0,0,1,.07,10.37Z" fill="#eb5856"/></svg>
