<svg xmlns="http://www.w3.org/2000/svg" width="24" height="24" viewBox="0 0 24 24" fill="none" stroke="currentColor" stroke-width="2" stroke-linecap="round" stroke-linejoin="round" class="whatsapp">
<path class="st0" d="M13.1,2.8c-4.8,0-8.6,3.9-8.6,8.6c0,1,0.2,2,0.5,2.9l0,0l-2.7,6.2l6.6-1.6l0,0c1.3,0.7,2.7,1.1,4.2,1.1
	c4.8,0,8.6-3.9,8.6-8.6S17.8,2.8,13.1,2.8z"/>
<path class="st1" d="M17.5,14.1l-0.1,1.3c0,0.5-0.4,0.9-0.9,0.8c0,0-0.1,0-0.1,0c-1.4-0.2-2.6-0.8-3.8-1.6c-1-0.7-1.9-1.7-2.5-2.8
	C9.5,10.7,9.1,9.3,9,7.9C9,7.4,9.4,7,9.9,7c0,0,0.1,0,0.1,0l1.3,0.1c0.4,0,0.8,0.4,0.8,0.8c0,0.4,0.1,0.9,0.2,1.3
	c0.1,0.3,0,0.7-0.3,0.9l-0.6,0.5c0.6,1.1,1.4,2.1,2.5,2.8l0.6-0.5c0.3-0.2,0.6-0.3,0.9-0.1c0.4,0.2,0.8,0.3,1.2,0.4
	C17.2,13.3,17.5,13.7,17.5,14.1z"/>
</svg>
